<svg version="1.2" baseProfile="tiny" 
   xmlns="http://www.w3.org/2000/svg" xmlns:xlink="http://www.w3.org/1999/xlink"  viewBox="0 0 54.5 53.7" height="100%" width="100%">

<g id="c">
  <path fill="#E13539" d="M27.7,1.2C13.5,1.2,2,12.7,2,27c0,14.2,11.5,25.7,25.7,25.7C42,52.7,53.5,41.2,53.5,27
    C53.5,12.7,42,1.2,27.7,1.2z M33.8,30.2c1.5,0,2.6,1.2,2.6,2.6c0,1.4-1.2,2.6-2.6,2.6c-1.4,0-2.6-1.2-2.6-2.6
    C31.1,31.3,32.3,30.2,33.8,30.2z M31.1,21.2c0-1.5,1.2-2.6,2.6-2.6c1.5,0,2.6,1.2,2.6,2.6c0,1.4-1.2,2.6-2.6,2.6
    C32.3,23.8,31.1,22.6,31.1,21.2z M21.5,23.8c-1.4,0-2.6-1.2-2.6-2.6c0-1.5,1.2-2.6,2.6-2.6c1.5,0,2.6,1.2,2.6,2.6
    C24.1,22.6,23,23.8,21.5,23.8z M24.1,32.8c0,1.4-1.2,2.6-2.6,2.6c-1.4,0-2.6-1.2-2.6-2.6c0-1.5,1.2-2.6,2.6-2.6
    C23,30.2,24.1,31.3,24.1,32.8z"/>
  <path fill="#424242" d="M27.7,4.9C15.5,4.9,5.6,14.8,5.6,27c0,12.2,9.9,22.1,22.1,22.1c12.2,0,22.1-9.9,22.1-22.1
    C49.9,14.8,40,4.9,27.7,4.9z M31.1,32.8c0-1.5,1.2-2.6,2.6-2.6c1.5,0,2.6,1.2,2.6,2.6c0,1.4-1.2,2.6-2.6,2.6
    C32.3,35.4,31.1,34.2,31.1,32.8z M33.8,23.8c-1.4,0-2.6-1.2-2.6-2.6c0-1.5,1.2-2.6,2.6-2.6c1.5,0,2.6,1.2,2.6,2.6
    C36.4,22.6,35.2,23.8,33.8,23.8z M18.9,32.8c0-1.5,1.2-2.6,2.6-2.6c1.5,0,2.6,1.2,2.6,2.6c0,1.4-1.2,2.6-2.6,2.6
    C20.1,35.4,18.9,34.2,18.9,32.8z M21.5,23.8c-1.4,0-2.6-1.2-2.6-2.6c0-1.5,1.2-2.6,2.6-2.6c1.5,0,2.6,1.2,2.6,2.6
    C24.1,22.6,23,23.8,21.5,23.8z"/>
  <path fill="#E13539" d="M27.7,11.8c-8.4,0-15.1,6.8-15.1,15.2c0,8.4,6.8,15.1,15.1,15.1c8.4,0,15.2-6.8,15.2-15.1
    C42.9,18.6,36.1,11.8,27.7,11.8z M21.5,35.4c-1.4,0-2.6-1.2-2.6-2.6c0-1.5,1.2-2.6,2.6-2.6c1.5,0,2.6,1.2,2.6,2.6
    C24.1,34.2,23,35.4,21.5,35.4z M21.5,23.8c-1.4,0-2.6-1.2-2.6-2.6c0-1.5,1.2-2.6,2.6-2.6c1.5,0,2.6,1.2,2.6,2.6
    C24.1,22.6,23,23.8,21.5,23.8z M33.8,35.4c-1.4,0-2.6-1.2-2.6-2.6c0-1.5,1.2-2.6,2.6-2.6c1.5,0,2.6,1.2,2.6,2.6
    C36.4,34.2,35.2,35.4,33.8,35.4z M33.8,23.8c-1.4,0-2.6-1.2-2.6-2.6c0-1.5,1.2-2.6,2.6-2.6c1.5,0,2.6,1.2,2.6,2.6
    C36.4,22.6,35.2,23.8,33.8,23.8z"/>
  <path fill="#515151" d="M49.9,27c0-12.2-9.9-22.1-22.1-22.1v44.2C40,49.1,49.9,39.2,49.9,27z M33.8,18.5c1.5,0,2.6,1.2,2.6,2.6
    c0,1.4-1.2,2.6-2.6,2.6c-1.4,0-2.6-1.2-2.6-2.6C31.1,19.7,32.3,18.5,33.8,18.5z M33.8,30.2c1.5,0,2.6,1.2,2.6,2.6
    c0,1.4-1.2,2.6-2.6,2.6c-1.4,0-2.6-1.2-2.6-2.6C31.1,31.3,32.3,30.2,33.8,30.2z"/>
  <path fill="#E13539" d="M42.9,27c0-8.4-6.8-15.2-15.2-15.2v30.3C36.1,42.1,42.9,35.3,42.9,27z M33.8,18.5c1.5,0,2.6,1.2,2.6,2.6
    c0,1.4-1.2,2.6-2.6,2.6c-1.4,0-2.6-1.2-2.6-2.6C31.1,19.7,32.3,18.5,33.8,18.5z M33.8,30.2c1.5,0,2.6,1.2,2.6,2.6
    c0,1.4-1.2,2.6-2.6,2.6c-1.4,0-2.6-1.2-2.6-2.6C31.1,31.3,32.3,30.2,33.8,30.2z"/>
</g>


</svg>