<svg baseProfile="tiny" xmlns="http://www.w3.org/2000/svg" xmlns:xlink="http://www.w3.org/1999/xlink" version="1.2" viewBox="0 0 40 53.9"><style type="text/css"><![CDATA[ .rect-open{width:2.7px;height:9.5px;fill: #d6d6d6;} ]]></style><path d="M17.7 49.7l-.2-2.7 9.5-.8.2 2.7zm-.5-7.7v-2.6h9.5v2.7zm.8-8v-2.7l9.6.6-.2 2.7zm1-8.1l.3-2.7 9.4 1-.3 2.7zm2.4-8.3l.7-2.6 9.2 2.3-.7 2.7zM25 9.9l1.1-2.5 8.6 4-1.1 2.5zm4.6-7.3L31.2.4 39 6l-1.6 2.2zm-15 51l-.2-2.7 9.5-.6.2 2.7zM14.6 43.5h9.5v2.7h-9.5zM14 38.5l-.1-2.7 9.4-.9.3 2.7zm-.8-6.7l-.8-2.6 9-2.9.9 2.6zm-1.9-6.6l-1.4-2.3L18 18l1.3 2.4zm-4-6.2l-1.6-2.2 7.5-5.8 1.6 2.1zM3 12.8L1.2 11l6.5-7 2 1.9z" class="rect-open"/></svg>